<?xml version="1.0" standalone="no"?>
<!DOCTYPE svg PUBLIC "-//W3C//DTD SVG 20010904//EN"
 "http://www.w3.org/TR/2001/REC-SVG-20010904/DTD/svg10.dtd">
<svg version="1.0" xmlns="http://www.w3.org/2000/svg"
 width="1200.000000pt" height="1200.000000pt" viewBox="0 0 1200.000000 1200.000000"
 preserveAspectRatio="xMidYMid meet">
<metadata>
Created by potrace 1.14, written by Peter Selinger 2001-2017
</metadata>
<g transform="translate(0.000000,1200.000000) scale(0.100000,-0.100000)"
fill="#000000" stroke="none">
<path d="M0 6000 l0 -6000 6000 0 6000 0 0 6000 0 6000 -6000 0 -6000 0 0
-6000z m5417 2785 l583 -455 582 455 c343 267 592 455 604 455 11 0 28 -8 36
-17 20 -23 578 -1359 578 -1383 0 -12 -325 -331 -886 -867 -744 -712 -891
-848 -914 -848 -24 0 -119 87 -577 525 -1291 1237 -1225 1172 -1221 1200 6 36
558 1351 576 1373 8 9 25 17 36 17 12 0 262 -188 603 -455z m-919 -3547 c9 -9
12 -123 12 -452 0 -495 0 -491 63 -491 43 0 57 -15 57 -61 0 -42 -20 -57 -84
-62 -65 -5 -116 16 -149 62 -22 31 -22 33 -25 510 -2 351 0 482 9 492 14 17
100 19 117 2z m3600 0 c9 -9 12 -123 12 -452 0 -495 0 -491 63 -491 43 0 57
-15 57 -61 0 -42 -20 -57 -84 -62 -65 -5 -116 16 -149 62 -22 31 -22 33 -25
510 -2 351 0 482 9 492 14 17 100 19 117 2z m-6956 -80 c10 -9 46 -147 102
-388 48 -206 90 -386 93 -400 5 -21 7 -19 15 20 36 172 179 754 189 766 16 20
112 19 129 -1 11 -13 -7 -94 -109 -483 -68 -257 -128 -473 -133 -479 -12 -15
-145 -18 -167 -4 -22 14 -263 952 -249 968 14 17 109 17 130 1z m872 -4 c10
-10 16 -33 16 -64 0 -31 -6 -54 -16 -64 -19 -19 -104 -22 -122 -4 -7 7 -12 37
-12 68 0 31 5 61 12 68 18 18 103 15 122 -4z m3508 -11 c91 -42 157 -133 189
-263 9 -35 14 -111 14 -210 -1 -215 -30 -315 -116 -401 -72 -72 -108 -82 -317
-87 -134 -3 -187 -1 -197 8 -13 11 -15 82 -15 484 0 364 3 475 13 485 9 9 56
12 197 9 162 -4 191 -7 232 -25z m4162 11 c10 -10 16 -33 16 -64 0 -31 -6 -54
-16 -64 -19 -19 -104 -22 -122 -4 -7 7 -12 37 -12 68 0 31 5 61 12 68 18 18
103 15 122 -4z m-2806 -66 c7 -7 12 -43 12 -90 l0 -78 50 0 c44 0 52 -3 60
-24 8 -23 5 -69 -6 -88 -3 -4 -27 -8 -55 -8 l-49 0 0 -233 c0 -199 2 -236 16
-256 14 -19 23 -22 50 -18 39 7 53 -6 61 -57 5 -34 3 -37 -30 -51 -83 -34
-186 -4 -219 65 -24 51 -27 90 -28 333 l0 217 -25 0 c-29 0 -45 29 -38 70 7
44 12 50 42 50 28 0 29 0 36 75 4 45 13 81 22 90 17 18 84 20 101 3z m2320 0
c7 -7 12 -43 12 -90 l0 -78 50 0 c44 0 52 -3 60 -24 8 -23 5 -69 -6 -88 -3 -4
-27 -8 -55 -8 l-49 0 0 -233 c0 -199 2 -236 16 -256 14 -19 23 -22 50 -18 39
7 53 -6 61 -57 5 -34 3 -37 -30 -51 -83 -34 -186 -4 -219 65 -24 51 -27 90
-28 333 l0 217 -25 0 c-29 0 -45 29 -38 70 7 44 12 50 42 50 28 0 29 0 36 75
4 45 13 81 22 90 17 18 84 20 101 3z m-6630 -173 c64 -19 78 -41 58 -90 -19
-44 -33 -50 -79 -30 -77 32 -147 4 -147 -59 0 -45 21 -70 100 -116 123 -72
160 -126 160 -235 -1 -95 -65 -182 -152 -206 -84 -22 -216 6 -257 55 -16 19
-9 51 18 85 l18 24 54 -26 c60 -30 97 -34 138 -12 33 16 41 33 41 81 0 43 -23
67 -115 121 -79 46 -118 84 -135 128 -16 41 -14 136 3 176 43 100 164 142 295
104z m1419 -13 c50 -26 89 -71 103 -120 5 -20 10 -136 10 -257 1 -121 5 -240
10 -265 11 -58 -3 -73 -67 -74 -44 -1 -49 1 -64 31 -16 32 -17 32 -33 14 -10
-11 -41 -29 -69 -41 -40 -18 -63 -21 -108 -17 -70 6 -111 29 -147 81 -25 36
-27 47 -27 130 0 69 5 100 19 129 34 70 139 122 268 134 l68 6 0 48 c0 36 -6
55 -24 76 -22 26 -30 28 -93 27 -47 0 -83 -7 -117 -23 -54 -24 -66 -20 -92 30
-18 35 -10 55 30 76 89 47 256 54 333 15z m2350 0 c50 -26 89 -71 103 -120 5
-20 10 -136 10 -257 1 -121 5 -240 10 -265 11 -58 -3 -73 -67 -74 -44 -1 -49
1 -64 31 -16 32 -17 32 -33 14 -10 -11 -41 -29 -69 -41 -40 -18 -63 -21 -108
-17 -70 6 -111 29 -147 81 -25 36 -27 47 -27 130 0 69 5 100 19 129 34 70 139
122 268 134 l68 6 0 48 c0 36 -6 55 -24 76 -22 26 -30 28 -93 27 -47 0 -83 -7
-117 -23 -54 -24 -66 -20 -92 30 -18 35 -10 55 30 76 89 47 256 54 333 15z
m1250 0 c50 -26 89 -71 103 -120 5 -20 10 -136 10 -257 1 -121 5 -240 10 -265
11 -58 -3 -73 -67 -74 -44 -1 -49 1 -64 31 -16 32 -17 32 -33 14 -10 -11 -41
-29 -69 -41 -40 -18 -63 -21 -108 -17 -70 6 -111 29 -147 81 -25 36 -27 47
-27 130 0 69 5 100 19 129 34 70 139 122 268 134 l68 6 0 48 c0 36 -6 55 -24
76 -22 26 -30 28 -93 27 -47 0 -83 -7 -117 -23 -54 -24 -66 -20 -92 30 -18 35
-10 55 30 76 89 47 256 54 333 15z m2776 0 c41 -18 47 -25 47 -51 0 -17 -10
-42 -23 -57 -22 -26 -24 -26 -54 -11 -45 24 -106 31 -147 17 -69 -22 -98 -98
-98 -250 0 -153 29 -228 98 -250 43 -15 108 -7 159 17 36 17 37 17 51 -2 19
-26 28 -61 20 -80 -18 -48 -192 -79 -287 -52 -132 39 -199 161 -199 367 0 260
104 385 310 377 49 -2 92 -11 123 -25z m525 13 c64 -19 78 -41 58 -90 -19 -44
-33 -50 -79 -30 -77 32 -147 4 -147 -59 0 -45 21 -70 100 -116 123 -72 160
-126 160 -235 -1 -95 -65 -182 -152 -206 -84 -22 -216 6 -257 55 -16 19 -9 51
18 85 l18 24 54 -26 c60 -30 97 -34 138 -12 33 16 41 33 41 81 0 43 -23 67
-115 121 -79 46 -118 84 -135 128 -16 41 -14 136 3 176 43 100 164 142 295
104z m-8880 -7 c17 -17 17 -699 0 -716 -16 -16 -100 -16 -116 0 -17 17 -17
699 0 716 16 16 100 16 116 0z m986 -4 c14 -13 16 -54 16 -290 l0 -275 25 -24
c40 -41 109 -27 154 31 20 26 21 38 21 294 0 300 -5 280 75 280 77 0 75 9 75
-338 0 -169 3 -324 6 -344 6 -36 6 -37 -36 -48 -72 -19 -93 -12 -105 38 l-11
43 -29 -32 c-92 -98 -248 -87 -302 21 -22 43 -23 53 -23 340 0 217 3 299 12
308 18 18 103 15 122 -4z m5473 8 c12 -7 123 -436 123 -473 0 -36 18 -19 25
24 15 90 107 442 118 449 14 9 89 10 111 2 9 -3 16 -17 16 -30 0 -34 -259
-944 -276 -971 -12 -19 -23 -23 -68 -23 -31 0 -58 5 -64 13 -7 8 3 53 34 152
24 77 44 149 44 160 0 11 -45 167 -100 348 -80 259 -99 332 -89 343 12 15 105
20 126 6z m1211 -4 c9 -9 12 -102 12 -358 0 -256 -3 -349 -12 -358 -16 -16
-100 -16 -116 0 -9 9 -12 102 -12 358 0 256 3 349 12 358 16 16 100 16 116 0z"/>
<path d="M4856 8960 c-10 -65 -38 -461 -33 -467 5 -4 296 53 303 60 2 1 -54
94 -122 207 -69 113 -129 212 -134 220 -6 11 -10 5 -14 -20z"/>
<path d="M7003 8772 c-113 -185 -129 -218 -114 -224 33 -12 283 -60 288 -55 6
7 -26 445 -35 474 -6 19 -30 -15 -139 -195z"/>
<path d="M5054 8898 c14 -24 65 -109 114 -191 l87 -147 215 -70 c118 -38 216
-68 217 -66 3 3 -534 427 -620 489 l-39 29 26 -44z"/>
<path d="M6637 8683 c-180 -141 -326 -257 -324 -259 1 -2 99 28 217 66 l215
70 87 147 c49 82 99 167 114 191 14 23 24 42 22 42 -2 -1 -150 -116 -331 -257z"/>
<path d="M4588 8492 c-76 -179 -136 -327 -134 -329 1 -1 57 60 124 136 l121
138 16 188 c9 103 14 189 13 191 -2 1 -65 -144 -140 -324z"/>
<path d="M7271 8815 c-1 -6 6 -93 14 -194 l16 -184 121 -138 c67 -76 123 -137
125 -136 2 2 -237 579 -266 642 -5 11 -10 15 -10 10z"/>
<path d="M4986 8404 c-94 -19 -172 -37 -174 -39 -5 -5 -33 -327 -29 -331 6 -6
569 132 570 140 0 4 -35 66 -78 137 -61 101 -83 129 -99 128 -12 0 -97 -16
-190 -35z"/>
<path d="M6726 8314 c-42 -69 -78 -130 -79 -136 -2 -9 563 -152 570 -144 4 3
-24 327 -28 331 -5 4 -359 75 -375 75 -6 0 -45 -57 -88 -126z"/>
<path d="M5360 8394 c0 -5 107 -182 116 -193 2 -3 69 11 149 29 80 18 142 37
138 41 -7 6 -384 129 -397 129 -3 0 -6 -3 -6 -6z"/>
<path d="M6428 8336 c-103 -33 -189 -64 -192 -67 -3 -3 59 -21 139 -39 80 -18
147 -32 149 -29 7 8 116 190 116 194 0 10 -29 2 -212 -59z"/>
<path d="M4552 8096 c-70 -79 -118 -142 -110 -143 7 -2 60 9 118 25 l105 27 8
90 c14 162 18 162 -121 1z"/>
<path d="M7325 8130 c4 -63 9 -118 11 -121 5 -9 224 -63 230 -57 3 4 -194 238
-243 288 -3 3 -2 -47 2 -110z"/>
<path d="M5758 8142 c-166 -40 -228 -60 -228 -70 0 -8 55 -209 122 -447 l121
-433 114 -52 113 -53 113 53 114 53 121 432 c67 238 122 439 122 447 0 10 -64
30 -237 71 -131 32 -240 57 -243 56 -3 0 -107 -26 -232 -57z"/>
<path d="M5113 7991 c-156 -37 -285 -70 -288 -73 -3 -3 61 -97 141 -209 l147
-204 260 -122 c143 -68 261 -122 262 -120 5 7 -223 791 -231 793 -5 1 -136
-28 -291 -65z"/>
<path d="M6589 8058 c0 -2 -51 -181 -113 -398 -62 -217 -112 -396 -111 -397 1
-2 119 52 262 120 l260 122 147 205 c127 177 145 206 129 212 -10 4 -135 35
-278 68 -143 33 -268 63 -277 66 -10 3 -18 4 -19 2z"/>
<path d="M4566 7860 c-65 -16 -120 -31 -122 -33 -5 -4 439 -216 444 -212 4 4
-188 270 -196 272 -4 1 -60 -11 -126 -27z"/>
<path d="M7207 7754 c-54 -75 -97 -137 -95 -139 5 -4 449 208 444 212 -3 3
-122 33 -231 58 -17 3 -39 -21 -118 -131z"/>
<path d="M4630 7568 c41 -40 221 -212 400 -383 178 -170 376 -359 439 -420
135 -129 153 -160 -197 325 l-227 315 -135 67 c-74 36 -184 89 -245 117 l-110
51 75 -72z"/>
<path d="M7205 7529 c-126 -60 -240 -120 -251 -132 -21 -22 -503 -689 -519
-717 -4 -8 32 24 81 71 49 47 253 243 454 434 412 393 477 455 470 454 -3 0
-108 -50 -235 -110z"/>
<path d="M5262 7301 c8 -20 583 -810 585 -803 4 11 -165 604 -174 612 -16 14
-414 199 -411 191z"/>
<path d="M6530 7209 c-125 -59 -207 -104 -212 -116 -14 -32 -170 -595 -166
-598 2 -2 135 179 296 402 162 223 292 406 290 407 -2 2 -95 -41 -208 -95z"/>
<path d="M5820 7033 c0 -11 172 -617 178 -627 3 -5 45 134 94 309 49 174 87
319 85 321 -3 3 -44 -13 -92 -35 l-87 -41 -86 40 c-92 43 -92 43 -92 33z"/>
<path d="M5240 4675 l0 -365 80 0 c95 0 134 14 177 64 53 60 68 127 67 306 0
134 -3 163 -22 214 -41 111 -94 146 -222 146 l-80 0 0 -365z"/>
<path d="M3838 4526 c-80 -22 -114 -68 -105 -145 11 -96 116 -122 195 -49 20
19 22 31 22 115 l0 93 -32 -1 c-18 0 -54 -6 -80 -13z"/>
<path d="M6188 4526 c-80 -22 -114 -68 -105 -145 11 -96 116 -122 195 -49 20
19 22 31 22 115 l0 93 -32 -1 c-18 0 -54 -6 -80 -13z"/>
<path d="M7438 4526 c-80 -22 -114 -68 -105 -145 11 -96 116 -122 195 -49 20
19 22 31 22 115 l0 93 -32 -1 c-18 0 -54 -6 -80 -13z"/>
</g>
</svg>
